# Free SolidWorks .OBJ Exporter v2.0
# num_vertices: 122 

mtllib Assem1.mtl

v -0.704846938201621 0.780083588746763 0.752871268871673
v -0.704846938201621 0.780083588746763 0.652871268871673
v -0.704846938201621 0.680083588746763 0.652871268871673
v -0.704846938201621 0.780083588746763 0.552871268871673
v -0.704846938201621 0.680083588746763 0.552871268871673
v -0.704846938201621 0.680083588746763 0.752871268871673
v 0.295153061798379 0.780083588746763 0.752871268871673
v 0.195153061798379 0.780083588746763 0.752871268871673
v 0.195153061798379 0.680083588746763 0.752871268871673
v 9.51530617983793E-02 0.780083588746763 0.752871268871673
v 9.51530617983792E-02 0.680083588746763 0.752871268871673
v -4.84693820162063E-03 0.780083588746763 0.752871268871673
v -4.84693820162074E-03 0.680083588746763 0.752871268871673
v -0.104846938201621 0.780083588746763 0.752871268871673
v -0.104846938201621 0.680083588746763 0.752871268871673
v -0.204846938201621 0.780083588746763 0.752871268871673
v -0.204846938201621 0.680083588746763 0.752871268871673
v -0.304846938201621 0.780083588746763 0.752871268871673
v -0.304846938201621 0.680083588746763 0.752871268871673
v -0.404846938201621 0.780083588746763 0.752871268871673
v -0.404846938201621 0.680083588746763 0.752871268871673
v -0.504846938201621 0.780083588746763 0.752871268871673
v -0.504846938201621 0.680083588746763 0.752871268871673
v -0.604846938201621 0.780083588746763 0.752871268871673
v -0.604846938201621 0.680083588746763 0.752871268871673
v -0.704846938201621 0.780083588746763 0.752871268871673
v -0.704846938201621 0.680083588746763 0.752871268871673
v 0.295153061798379 0.680083588746763 0.752871268871673
v 0.295153061798379 0.780083588746763 0.552871268871673
v 0.295153061798379 0.780083588746763 0.652871268871673
v 0.295153061798379 0.680083588746763 0.652871268871673
v 0.295153061798379 0.780083588746763 0.752871268871673
v 0.295153061798379 0.680083588746763 0.752871268871673
v 0.295153061798379 0.680083588746763 0.552871268871673
v -0.704846938201621 0.780083588746763 0.552871268871673
v -0.604846938201621 0.780083588746763 0.552871268871673
v -0.604846938201621 0.680083588746763 0.552871268871673
v -0.504846938201621 0.780083588746763 0.552871268871673
v -0.504846938201621 0.680083588746763 0.552871268871673
v -0.404846938201621 0.780083588746763 0.552871268871673
v -0.404846938201621 0.680083588746763 0.552871268871673
v -0.304846938201621 0.780083588746763 0.552871268871673
v -0.304846938201621 0.680083588746763 0.552871268871673
v -0.204846938201621 0.780083588746763 0.552871268871673
v -0.204846938201621 0.680083588746763 0.552871268871673
v -0.104846938201621 0.780083588746763 0.552871268871673
v -0.104846938201621 0.680083588746763 0.552871268871673
v -4.84693820162074E-03 0.780083588746763 0.552871268871673
v -4.84693820162074E-03 0.680083588746763 0.552871268871673
v 9.51530617983792E-02 0.780083588746763 0.552871268871673
v 9.51530617983792E-02 0.680083588746763 0.552871268871673
v 0.195153061798379 0.780083588746763 0.552871268871673
v 0.195153061798379 0.680083588746763 0.552871268871673
v 0.295153061798379 0.780083588746763 0.552871268871673
v 0.295153061798379 0.680083588746763 0.552871268871673
v -0.704846938201621 0.680083588746763 0.552871268871673
v 0.295153061798379 0.780083588746763 0.752871268871673
v 0.295153061798379 0.780083588746763 0.652871268871673
v 0.195153061798379 0.780083588746763 0.652871268871673
v 0.295153061798379 0.780083588746763 0.552871268871673
v 0.195153061798379 0.780083588746763 0.552871268871673
v 0.195153061798379 0.780083588746763 0.752871268871673
v 9.51530617983792E-02 0.780083588746763 0.652871268871673
v 9.51530617983792E-02 0.780083588746763 0.552871268871673
v 9.51530617983793E-02 0.780083588746763 0.752871268871673
v -4.84693820162074E-03 0.780083588746763 0.652871268871673
v -4.84693820162074E-03 0.780083588746763 0.552871268871673
v -4.84693820162063E-03 0.780083588746763 0.752871268871673
v -0.104846938201621 0.780083588746763 0.652871268871673
v -0.104846938201621 0.780083588746763 0.552871268871673
v -0.104846938201621 0.780083588746763 0.752871268871673
v -0.204846938201621 0.780083588746763 0.652871268871673
v -0.204846938201621 0.780083588746763 0.552871268871673
v -0.204846938201621 0.780083588746763 0.752871268871673
v -0.304846938201621 0.780083588746763 0.652871268871673
v -0.304846938201621 0.780083588746763 0.552871268871673
v -0.304846938201621 0.780083588746763 0.752871268871673
v -0.404846938201621 0.780083588746763 0.652871268871673
v -0.404846938201621 0.780083588746763 0.552871268871673
v -0.404846938201621 0.780083588746763 0.752871268871673
v -0.504846938201621 0.780083588746763 0.652871268871673
v -0.504846938201621 0.780083588746763 0.552871268871673
v -0.504846938201621 0.780083588746763 0.752871268871673
v -0.604846938201621 0.780083588746763 0.652871268871673
v -0.604846938201621 0.780083588746763 0.552871268871673
v -0.604846938201621 0.780083588746763 0.752871268871673
v -0.704846938201621 0.780083588746763 0.652871268871673
v -0.704846938201621 0.780083588746763 0.552871268871673
v -0.704846938201621 0.780083588746763 0.752871268871673
v -0.604846938201621 0.680083588746763 0.752871268871673
v -0.704846938201621 0.680083588746763 0.752871268871673
v -0.704846938201621 0.680083588746763 0.652871268871673
v -0.604846938201621 0.680083588746763 0.652871268871673
v -0.704846938201621 0.680083588746763 0.552871268871673
v -0.504846938201621 0.680083588746763 0.752871268871673
v -0.504846938201621 0.680083588746763 0.652871268871673
v -0.604846938201621 0.680083588746763 0.552871268871673
v -0.404846938201621 0.680083588746763 0.752871268871673
v -0.404846938201621 0.680083588746763 0.652871268871673
v -0.504846938201621 0.680083588746763 0.552871268871673
v -0.304846938201621 0.680083588746763 0.752871268871673
v -0.304846938201621 0.680083588746763 0.652871268871673
v -0.404846938201621 0.680083588746763 0.552871268871673
v -0.204846938201621 0.680083588746763 0.752871268871673
v -0.204846938201621 0.680083588746763 0.652871268871673
v -0.304846938201621 0.680083588746763 0.552871268871673
v -0.104846938201621 0.680083588746763 0.752871268871673
v -0.104846938201621 0.680083588746763 0.652871268871673
v -0.204846938201621 0.680083588746763 0.552871268871673
v -4.84693820162074E-03 0.680083588746763 0.752871268871673
v -4.84693820162074E-03 0.680083588746763 0.652871268871673
v -0.104846938201621 0.680083588746763 0.552871268871673
v 9.51530617983792E-02 0.680083588746763 0.752871268871673
v 9.51530617983792E-02 0.680083588746763 0.652871268871673
v -4.84693820162074E-03 0.680083588746763 0.552871268871673
v 0.195153061798379 0.680083588746763 0.752871268871673
v 0.195153061798379 0.680083588746763 0.652871268871673
v 9.51530617983792E-02 0.680083588746763 0.552871268871673
v 0.295153061798379 0.680083588746763 0.752871268871673
v 0.295153061798379 0.680083588746763 0.652871268871673
v 0.195153061798379 0.680083588746763 0.552871268871673
v 0.295153061798379 0.680083588746763 0.552871268871673
# 122 vertices

vn -1 0 -0
vn -1 0 -0
vn -1 0 -0
vn -1 0 -0
vn -1 0 -0
vn -1 0 -0
vn -0 -0 1
vn -0 -0 1
vn -0 -0 1
vn -0 -0 1
vn -0 -0 1
vn -0 -0 1
vn -0 -0 1
vn -0 -0 1
vn -0 -0 1
vn -0 -0 1
vn -0 -0 1
vn -0 -0 1
vn -0 -0 1
vn -0 -0 1
vn -0 -0 1
vn -0 -0 1
vn -0 -0 1
vn -0 -0 1
vn -0 -0 1
vn -0 -0 1
vn -0 -0 1
vn -0 -0 1
vn 1 -0 -0
vn 1 -0 -0
vn 1 -0 -0
vn 1 -0 -0
vn 1 -0 -0
vn 1 -0 -0
vn -0 -0 -1
vn -0 -0 -1
vn -0 -0 -1
vn -0 -0 -1
vn -0 -0 -1
vn -0 -0 -1
vn -0 -0 -1
vn -0 -0 -1
vn -0 -0 -1
vn -0 -0 -1
vn -0 -0 -1
vn -0 -0 -1
vn -0 -0 -1
vn -0 -0 -1
vn -0 -0 -1
vn -0 -0 -1
vn -0 -0 -1
vn -0 -0 -1
vn -0 -0 -1
vn -0 -0 -1
vn -0 -0 -1
vn -0 -0 -1
vn -0 1 -0
vn -0 1 -0
vn -0 1 -0
vn -0 1 -0
vn -0 1 -0
vn -0 1 -0
vn -0 1 -0
vn -0 1 -0
vn -0 1 -0
vn -0 1 -0
vn -0 1 -0
vn -0 1 -0
vn -0 1 -0
vn -0 1 -0
vn -0 1 -0
vn -0 1 -0
vn -0 1 -0
vn -0 1 -0
vn -0 1 -0
vn -0 1 -0
vn -0 1 -0
vn -0 1 -0
vn -0 1 -0
vn -0 1 -0
vn -0 1 -0
vn -0 1 -0
vn -0 1 -0
vn -0 1 -0
vn -0 1 -0
vn -0 1 -0
vn -0 1 -0
vn -0 1 -0
vn -0 1 -0
vn 0 -1 0
vn 0 -1 0
vn 0 -1 0
vn 0 -1 0
vn 0 -1 0
vn 0 -1 0
vn 0 -1 0
vn 0 -1 0
vn 0 -1 0
vn 0 -1 0
vn 0 -1 0
vn 0 -1 0
vn 0 -1 0
vn 0 -1 0
vn 0 -1 0
vn 0 -1 0
vn 0 -1 0
vn 0 -1 0
vn 0 -1 0
vn 0 -1 0
vn 0 -1 0
vn 0 -1 0
vn 0 -1 0
vn 0 -1 0
vn 0 -1 0
vn 0 -1 0
vn 0 -1 0
vn 0 -1 0
vn 0 -1 0
vn 0 -1 0
vn 0 -1 0
vn 0 -1 0
vn 0 -1 0
# 122 normals

vt 0 0
vt 0.1 0
vt 0.1 -0.1
vt 0.2 0
vt 0.2 -0.1
vt 0 -0.1
vt -1 0
vt -0.9 0
vt -0.9 -0.1
vt -0.8 0
vt -0.8 -0.1
vt -0.7 0
vt -0.7 -0.1
vt -0.6 0
vt -0.6 -0.1
vt -0.5 0
vt -0.5 -0.1
vt -0.4 0
vt -0.4 -0.1
vt -0.3 0
vt -0.3 -0.1
vt -0.2 0
vt -0.2 -0.1
vt -0.1 0
vt -0.1 -0.1
vt 0 0
vt 0 -0.1
vt -1 -0.1
vt 0 0
vt 0.1 0
vt 0.1 -0.1
vt 0.2 0
vt 0.2 -0.1
vt 0 -0.1
vt 0 0
vt 0.1 0
vt 0.1 -0.1
vt 0.2 0
vt 0.2 -0.1
vt 0.3 0
vt 0.3 -0.1
vt 0.4 0
vt 0.4 -0.1
vt 0.5 0
vt 0.5 -0.1
vt 0.6 0
vt 0.6 -0.1
vt 0.7 0
vt 0.7 -0.1
vt 0.8 0
vt 0.8 -0.1
vt 0.9 0
vt 0.9 -0.1
vt 1 0
vt 1 -0.1
vt 0 -0.1
vt -0.1 1
vt 0 1
vt 0 0.9
vt 0.1 1
vt 0.1 0.9
vt -0.1 0.9
vt 0 0.8
vt 0.1 0.8
vt -0.1 0.8
vt 0 0.7
vt 0.1 0.7
vt -0.1 0.7
vt 0 0.6
vt 0.1 0.6
vt -0.1 0.6
vt 0 0.5
vt 0.1 0.5
vt -0.1 0.5
vt 0 0.4
vt 0.1 0.4
vt -0.1 0.4
vt 0 0.3
vt 0.1 0.3
vt -0.1 0.3
vt 0 0.2
vt 0.1 0.2
vt -0.1 0.2
vt 0 0.1
vt 0.1 0.1
vt -0.1 0.1
vt 0 0
vt 0.1 0
vt -0.1 0
vt -0.1 0.1
vt -0.1 0
vt 0 0
vt 0 0.1
vt 0.1 0
vt -0.1 0.2
vt 0 0.2
vt 0.1 0.1
vt -0.1 0.3
vt 0 0.3
vt 0.1 0.2
vt -0.1 0.4
vt 0 0.4
vt 0.1 0.3
vt -0.1 0.5
vt 0 0.5
vt 0.1 0.4
vt -0.1 0.6
vt 0 0.6
vt 0.1 0.5
vt -0.1 0.7
vt 0 0.7
vt 0.1 0.6
vt -0.1 0.8
vt 0 0.8
vt 0.1 0.7
vt -0.1 0.9
vt 0 0.9
vt 0.1 0.8
vt -0.1 1
vt 0 1
vt 0.1 0.9
vt 0.1 1
# 122 UVs

g  mesh 1 S1000-1
usemtl  1 
f 5/5/5 2/2/2 4/4/4
f 2/2/2 5/5/5 3/3/3
f 1/1/1 3/3/3 6/6/6
f 3/3/3 1/1/1 2/2/2
f 9/9/9 7/7/7 8/8/8
f 11/11/11 8/8/8 10/10/10
f 13/13/13 10/10/10 12/12/12
f 15/15/15 12/12/12 14/14/14
f 17/17/17 14/14/14 16/16/16
f 19/19/19 16/16/16 18/18/18
f 21/21/21 18/18/18 20/20/20
f 23/23/23 20/20/20 22/22/22
f 25/25/25 22/22/22 24/24/24
f 27/27/27 24/24/24 26/26/26
f 24/24/24 27/27/27 25/25/25
f 22/22/22 25/25/25 23/23/23
f 20/20/20 23/23/23 21/21/21
f 18/18/18 21/21/21 19/19/19
f 16/16/16 19/19/19 17/17/17
f 14/14/14 17/17/17 15/15/15
f 12/12/12 15/15/15 13/13/13
f 10/10/10 13/13/13 11/11/11
f 8/8/8 11/11/11 9/9/9
f 7/7/7 9/9/9 28/28/28
f 31/31/31 29/29/29 30/30/30
f 33/33/33 30/30/30 32/32/32
f 30/30/30 33/33/33 31/31/31
f 29/29/29 31/31/31 34/34/34
f 37/37/37 35/35/35 36/36/36
f 39/39/39 36/36/36 38/38/38
f 41/41/41 38/38/38 40/40/40
f 43/43/43 40/40/40 42/42/42
f 45/45/45 42/42/42 44/44/44
f 47/47/47 44/44/44 46/46/46
f 49/49/49 46/46/46 48/48/48
f 51/51/51 48/48/48 50/50/50
f 53/53/53 50/50/50 52/52/52
f 55/55/55 52/52/52 54/54/54
f 52/52/52 55/55/55 53/53/53
f 50/50/50 53/53/53 51/51/51
f 48/48/48 51/51/51 49/49/49
f 46/46/46 49/49/49 47/47/47
f 44/44/44 47/47/47 45/45/45
f 42/42/42 45/45/45 43/43/43
f 40/40/40 43/43/43 41/41/41
f 38/38/38 41/41/41 39/39/39
f 36/36/36 39/39/39 37/37/37
f 35/35/35 37/37/37 56/56/56
f 57/57/57 59/59/59 62/62/62
f 58/58/58 61/61/61 59/59/59
f 62/62/62 63/63/63 65/65/65
f 59/59/59 64/64/64 63/63/63
f 65/65/65 66/66/66 68/68/68
f 63/63/63 67/67/67 66/66/66
f 68/68/68 69/69/69 71/71/71
f 66/66/66 70/70/70 69/69/69
f 71/71/71 72/72/72 74/74/74
f 69/69/69 73/73/73 72/72/72
f 74/74/74 75/75/75 77/77/77
f 72/72/72 76/76/76 75/75/75
f 77/77/77 78/78/78 80/80/80
f 75/75/75 79/79/79 78/78/78
f 80/80/80 81/81/81 83/83/83
f 78/78/78 82/82/82 81/81/81
f 83/83/83 84/84/84 86/86/86
f 81/81/81 85/85/85 84/84/84
f 86/86/86 87/87/87 89/89/89
f 84/84/84 88/88/88 87/87/87
f 88/88/88 84/84/84 85/85/85
f 87/87/87 86/86/86 84/84/84
f 85/85/85 81/81/81 82/82/82
f 82/82/82 78/78/78 79/79/79
f 81/81/81 80/80/80 78/78/78
f 79/79/79 75/75/75 76/76/76
f 78/78/78 77/77/77 75/75/75
f 76/76/76 72/72/72 73/73/73
f 75/75/75 74/74/74 72/72/72
f 73/73/73 69/69/69 70/70/70
f 72/72/72 71/71/71 69/69/69
f 70/70/70 66/66/66 67/67/67
f 69/69/69 68/68/68 66/66/66
f 67/67/67 63/63/63 64/64/64
f 66/66/66 65/65/65 63/63/63
f 64/64/64 59/59/59 61/61/61
f 63/63/63 62/62/62 59/59/59
f 61/61/61 58/58/58 60/60/60
f 59/59/59 57/57/57 58/58/58
f 84/84/84 83/83/83 81/81/81
f 93/93/93 94/94/94 97/97/97
f 95/95/95 93/93/93 96/96/96
f 96/96/96 97/97/97 100/100/100
f 98/98/98 96/96/96 99/99/99
f 99/99/99 100/100/100 103/103/103
f 101/101/101 99/99/99 102/102/102
f 102/102/102 103/103/103 106/106/106
f 104/104/104 102/102/102 105/105/105
f 105/105/105 106/106/106 109/109/109
f 107/107/107 105/105/105 108/108/108
f 108/108/108 109/109/109 112/112/112
f 110/110/110 108/108/108 111/111/111
f 111/111/111 112/112/112 115/115/115
f 113/113/113 111/111/111 114/114/114
f 114/114/114 115/115/115 118/118/118
f 116/116/116 114/114/114 117/117/117
f 90/90/90 92/92/92 93/93/93
f 117/117/117 118/118/118 121/121/121
f 119/119/119 117/117/117 120/120/120
f 120/120/120 121/121/121 122/122/122
f 121/121/121 120/120/120 117/117/117
f 117/117/117 119/119/119 116/116/116
f 118/118/118 117/117/117 114/114/114
f 114/114/114 116/116/116 113/113/113
f 115/115/115 114/114/114 111/111/111
f 111/111/111 113/113/113 110/110/110
f 112/112/112 111/111/111 108/108/108
f 108/108/108 110/110/110 107/107/107
f 109/109/109 108/108/108 105/105/105
f 105/105/105 107/107/107 104/104/104
f 106/106/106 105/105/105 102/102/102
f 102/102/102 104/104/104 101/101/101
f 103/103/103 102/102/102 99/99/99
f 99/99/99 101/101/101 98/98/98
f 100/100/100 99/99/99 96/96/96
f 96/96/96 98/98/98 95/95/95
f 97/97/97 96/96/96 93/93/93
f 93/93/93 95/95/95 90/90/90
f 94/94/94 93/93/93 92/92/92
f 92/92/92 90/90/90 91/91/91

