# Free SolidWorks .OBJ Exporter v2.0
# num_vertices: 52 

mtllib Assem1.mtl

v -0.104630297836953 0.200195092607916 0.31698513656234
v -0.104630297836953 0.200195092607916 0.21698513656234
v -0.104630297836953 0.100195092607916 0.21698513656234
v -0.104630297836953 0.200195092607916 0.11698513656234
v -0.104630297836953 0.100195092607916 0.11698513656234
v -0.104630297836953 0.100195092607916 0.31698513656234
v 0.145369702163047 0.200195092607916 0.31698513656234
v 6.20363688297134E-02 0.200195092607916 0.31698513656234
v 6.20363688297134E-02 0.100195092607916 0.31698513656234
v -2.12969645036199E-02 0.200195092607916 0.31698513656234
v -2.12969645036199E-02 0.100195092607916 0.31698513656234
v -0.104630297836953 0.200195092607916 0.31698513656234
v -0.104630297836953 0.100195092607916 0.31698513656234
v 0.145369702163047 0.100195092607916 0.31698513656234
v 0.145369702163047 0.200195092607916 0.11698513656234
v 0.145369702163047 0.200195092607916 0.21698513656234
v 0.145369702163047 0.100195092607916 0.21698513656234
v 0.145369702163047 0.200195092607916 0.31698513656234
v 0.145369702163047 0.100195092607916 0.31698513656234
v 0.145369702163047 0.100195092607916 0.11698513656234
v -0.104630297836953 0.200195092607916 0.11698513656234
v -2.12969645036199E-02 0.200195092607916 0.11698513656234
v -2.12969645036199E-02 0.100195092607916 0.11698513656234
v 6.20363688297134E-02 0.200195092607916 0.11698513656234
v 6.20363688297134E-02 0.100195092607916 0.11698513656234
v 0.145369702163047 0.200195092607916 0.11698513656234
v 0.145369702163047 0.100195092607916 0.11698513656234
v -0.104630297836953 0.100195092607916 0.11698513656234
v 0.145369702163047 0.200195092607916 0.31698513656234
v 0.145369702163047 0.200195092607916 0.21698513656234
v 6.20363688297134E-02 0.200195092607916 0.21698513656234
v 0.145369702163047 0.200195092607916 0.11698513656234
v 6.20363688297134E-02 0.200195092607916 0.11698513656234
v 6.20363688297134E-02 0.200195092607916 0.31698513656234
v -2.12969645036199E-02 0.200195092607916 0.21698513656234
v -2.12969645036199E-02 0.200195092607916 0.11698513656234
v -2.12969645036199E-02 0.200195092607916 0.31698513656234
v -0.104630297836953 0.200195092607916 0.21698513656234
v -0.104630297836953 0.200195092607916 0.11698513656234
v -0.104630297836953 0.200195092607916 0.31698513656234
v -2.12969645036199E-02 0.100195092607916 0.31698513656234
v -0.104630297836953 0.100195092607916 0.31698513656234
v -0.104630297836953 0.100195092607916 0.21698513656234
v -2.12969645036199E-02 0.100195092607916 0.21698513656234
v -0.104630297836953 0.100195092607916 0.11698513656234
v 6.20363688297134E-02 0.100195092607916 0.31698513656234
v 6.20363688297134E-02 0.100195092607916 0.21698513656234
v -2.12969645036199E-02 0.100195092607916 0.11698513656234
v 0.145369702163047 0.100195092607916 0.31698513656234
v 0.145369702163047 0.100195092607916 0.21698513656234
v 6.20363688297134E-02 0.100195092607916 0.11698513656234
v 0.145369702163047 0.100195092607916 0.11698513656234
# 52 vertices

vn -1 0 -0
vn -1 0 -0
vn -1 0 -0
vn -1 0 -0
vn -1 0 -0
vn -1 0 -0
vn -0 -0 1
vn -0 -0 1
vn -0 -0 1
vn -0 -0 1
vn -0 -0 1
vn -0 -0 1
vn -0 -0 1
vn -0 -0 1
vn 1 -0 -0
vn 1 -0 -0
vn 1 -0 -0
vn 1 -0 -0
vn 1 -0 -0
vn 1 -0 -0
vn -0 -0 -1
vn -0 -0 -1
vn -0 -0 -1
vn -0 -0 -1
vn -0 -0 -1
vn -0 -0 -1
vn -0 -0 -1
vn -0 -0 -1
vn -0 1 -0
vn -0 1 -0
vn -0 1 -0
vn -0 1 -0
vn -0 1 -0
vn -0 1 -0
vn -0 1 -0
vn -0 1 -0
vn -0 1 -0
vn -0 1 -0
vn -0 1 -0
vn -0 1 -0
vn 0 -1 0
vn 0 -1 0
vn 0 -1 0
vn 0 -1 0
vn 0 -1 0
vn 0 -1 0
vn 0 -1 0
vn 0 -1 0
vn 0 -1 0
vn 0 -1 0
vn 0 -1 0
vn 0 -1 0
# 52 normals

vt 0 0
vt 0.1 0
vt 0.1 -0.1
vt 0.2 0
vt 0.2 -0.1
vt 0 -0.1
vt -0.25 0
vt -0.166666666666667 0
vt -0.166666666666667 -0.1
vt -8.33333333333334E-02 0
vt -8.33333333333334E-02 -0.1
vt 0 0
vt 0 -0.1
vt -0.25 -0.1
vt 0 0
vt 0.1 0
vt 0.1 -0.1
vt 0.2 0
vt 0.2 -0.1
vt 0 -0.1
vt 0 0
vt 8.33333333333333E-02 0
vt 8.33333333333333E-02 -0.1
vt 0.166666666666667 0
vt 0.166666666666667 -0.1
vt 0.25 0
vt 0.25 -0.1
vt 0 -0.1
vt -0.1 0.25
vt 0 0.25
vt 0 0.166666666666667
vt 0.1 0.25
vt 0.1 0.166666666666667
vt -0.1 0.166666666666667
vt 0 8.33333333333333E-02
vt 0.1 8.33333333333333E-02
vt -0.1 8.33333333333333E-02
vt 0 0
vt 0.1 0
vt -0.1 0
vt -0.1 8.33333333333333E-02
vt -0.1 0
vt 0 0
vt 0 8.33333333333333E-02
vt 0.1 0
vt -0.1 0.166666666666667
vt 0 0.166666666666667
vt 0.1 8.33333333333333E-02
vt -0.1 0.25
vt 0 0.25
vt 0.1 0.166666666666667
vt 0.1 0.25
# 52 UVs

g  mesh 1 S250-1
usemtl  1 
f 5/5/5 2/2/2 4/4/4
f 2/2/2 5/5/5 3/3/3
f 1/1/1 3/3/3 6/6/6
f 3/3/3 1/1/1 2/2/2
f 9/9/9 7/7/7 8/8/8
f 11/11/11 8/8/8 10/10/10
f 13/13/13 10/10/10 12/12/12
f 10/10/10 13/13/13 11/11/11
f 8/8/8 11/11/11 9/9/9
f 7/7/7 9/9/9 14/14/14
f 17/17/17 15/15/15 16/16/16
f 19/19/19 16/16/16 18/18/18
f 16/16/16 19/19/19 17/17/17
f 15/15/15 17/17/17 20/20/20
f 25/25/25 22/22/22 24/24/24
f 27/27/27 24/24/24 26/26/26
f 24/24/24 27/27/27 25/25/25
f 22/22/22 25/25/25 23/23/23
f 21/21/21 23/23/23 28/28/28
f 23/23/23 21/21/21 22/22/22
f 29/29/29 31/31/31 34/34/34
f 30/30/30 33/33/33 31/31/31
f 34/34/34 35/35/35 37/37/37
f 31/31/31 36/36/36 35/35/35
f 37/37/37 38/38/38 40/40/40
f 35/35/35 39/39/39 38/38/38
f 39/39/39 35/35/35 36/36/36
f 38/38/38 37/37/37 35/35/35
f 36/36/36 31/31/31 33/33/33
f 33/33/33 30/30/30 32/32/32
f 31/31/31 29/29/29 30/30/30
f 35/35/35 34/34/34 31/31/31
f 44/44/44 45/45/45 48/48/48
f 46/46/46 44/44/44 47/47/47
f 41/41/41 43/43/43 44/44/44
f 47/47/47 48/48/48 51/51/51
f 49/49/49 47/47/47 50/50/50
f 50/50/50 51/51/51 52/52/52
f 51/51/51 50/50/50 47/47/47
f 47/47/47 49/49/49 46/46/46
f 48/48/48 47/47/47 44/44/44
f 44/44/44 46/46/46 41/41/41
f 45/45/45 44/44/44 43/43/43
f 43/43/43 41/41/41 42/42/42

