# Blender v2.91.0 OBJ File: ''
# www.blender.org
v -1.000000 0.500000 0.000000
v -0.100000 -0.500000 0.000000
v -1.000000 -0.500000 0.000000
v 0.800000 0.500000 -0.000000
v 1.000000 -0.500000 -0.000000
v 0.800000 -0.500000 -0.000000
v 0.000000 -0.500000 -0.000000
v -0.000000 0.500000 0.000000
v 1.000000 0.500000 -0.000000
v -0.100000 0.500000 0.000000
v -1.000000 0.500000 2.000000
v -1.000000 -0.500000 1.000000
v -1.000000 -0.500000 2.000000
v -1.000000 -0.500000 0.000000
v -1.000000 0.500000 1.000000
v -1.000000 0.500000 0.000000
v -0.347723 0.500000 4.956185
v -0.325036 -0.500000 5.000000
v -0.325036 0.500000 5.000000
v -0.347722 -0.500000 4.956185
v -0.580167 0.500000 4.392153
v -0.580167 -0.500000 4.392153
v -0.762800 -0.500000 3.810080
v -0.703210 0.500000 4.000000
v -0.762801 0.500000 3.810080
v -0.894246 0.500000 3.214357
v -0.894246 -0.500000 3.214357
v -0.973511 -0.500000 2.609477
v -0.922336 0.500000 3.000000
v -0.973512 0.500000 2.609477
v -1.000000 0.500000 2.000000
v -1.000000 -0.500000 2.000000
v -0.100000 0.500000 5.434617
v -0.100000 -0.500000 5.434617
v -0.067220 0.500000 5.497925
v -0.067220 -0.500000 5.497925
v -0.703210 -0.500000 4.000000
v -0.922336 -0.500000 3.000000
v 0.581053 -0.500000 7.564040
v 0.600000 0.500000 8.000000
v 0.581053 0.500000 7.564040
v 0.524354 -0.500000 7.131367
v 0.524354 0.500000 7.131367
v 0.430331 -0.500000 6.705245
v 0.495368 0.500000 7.000000
v 0.430331 0.500000 6.705245
v 0.299693 -0.500000 6.288887
v 0.299692 0.500000 6.288887
v 0.133424 -0.500000 5.885433
v 0.180639 0.500000 6.000000
v 0.133424 0.500000 5.885433
v -0.067220 -0.500000 5.497925
v -0.067220 0.500000 5.497925
v 0.600000 -0.500000 8.000000
v 0.495368 -0.500000 7.000000
v 0.180639 -0.500000 6.000000
v 0.600000 0.500000 9.000000
v 0.600000 -0.500000 8.000000
v 0.600000 -0.500000 9.000000
v 0.600000 0.500000 8.000000
v 0.600000 0.500000 10.000000
v 0.600000 -0.500000 10.000000
v 2.600000 0.500000 10.000000
v 1.700000 -0.500000 10.000000
v 2.600000 -0.500000 10.000000
v 1.600000 0.500000 10.000000
v 0.800000 -0.500000 10.000000
v 1.600000 -0.500000 10.000000
v 0.600000 -0.500000 10.000000
v 0.800000 0.500000 10.000000
v 0.600000 0.500000 10.000000
v 1.700000 0.500000 10.000000
v 2.600000 0.500000 9.000000
v 2.600000 -0.500000 10.000000
v 2.600000 -0.500000 9.000000
v 2.600000 0.500000 10.000000
v 2.600000 0.500000 8.000000
v 2.600000 -0.500000 8.000000
v 2.573512 -0.500000 7.390523
v 2.600000 0.500000 8.000000
v 2.600000 -0.500000 8.000000
v 2.573512 0.500000 7.390523
v 2.494246 0.500000 6.785643
v 2.522336 -0.500000 7.000000
v 2.494246 -0.500000 6.785643
v 2.522336 0.500000 7.000000
v 2.362801 -0.500000 6.189919
v 2.362800 0.500000 6.189919
v 2.180167 0.500000 5.607847
v 2.303210 -0.500000 6.000000
v 2.180167 -0.500000 5.607847
v 2.303210 0.500000 6.000000
v 1.947723 -0.500000 5.043814
v 1.947722 0.500000 5.043814
v 1.667220 0.500000 4.502075
v 1.700000 -0.500000 4.565383
v 1.667220 -0.500000 4.502075
v 1.700000 0.500000 4.565383
v 1.925036 -0.500000 5.000000
v 1.925036 0.500000 5.000000
v 1.419361 -0.500000 4.000000
v 1.300308 0.500000 3.711113
v 1.419361 0.500000 4.000000
v 1.075646 -0.500000 2.868633
v 1.018947 0.500000 2.435960
v 1.075646 0.500000 2.868633
v 1.169670 -0.500000 3.294755
v 1.104632 0.500000 3.000000
v 1.169669 0.500000 3.294755
v 1.300308 -0.500000 3.711113
v 1.466576 -0.500000 4.114567
v 1.104632 -0.500000 3.000000
v 1.018947 -0.500000 2.435960
v 1.000000 0.500000 2.000000
v 1.000000 -0.500000 2.000000
v 1.466576 0.500000 4.114567
v 1.667220 -0.500000 4.502075
v 1.667220 0.500000 4.502075
v 1.000000 -0.500000 1.000000
v 1.000000 0.500000 -0.000000
v 1.000000 0.500000 1.000000
v 1.000000 -0.500000 -0.000000
v 1.000000 -0.500000 2.000000
v 1.000000 0.500000 2.000000
v 1.700000 0.500000 9.000000
v 0.800000 0.500000 8.000000
v 0.800000 0.500000 9.000000
v -0.100000 0.500000 1.000000
v -0.000000 0.500000 0.000000
v -0.100000 0.500000 0.000000
v -1.000000 0.500000 0.000000
v -1.000000 0.500000 1.000000
v 0.800000 0.500000 2.000000
v -0.100000 0.500000 2.000000
v -1.000000 0.500000 2.000000
v 0.800000 0.500000 3.000000
v -0.100000 0.500000 3.000000
v 0.800000 0.500000 4.000000
v -0.100000 0.500000 4.000000
v 0.800000 0.500000 5.000000
v -0.100000 0.500000 5.000000
v 1.700000 0.500000 6.000000
v 0.800000 0.500000 6.000000
v 1.700000 0.500000 7.000000
v 0.800000 0.500000 7.000000
v 1.700000 0.500000 8.000000
v 2.600000 0.500000 9.000000
v 2.600000 0.500000 10.000000
v 1.700000 0.500000 10.000000
v 1.600000 0.500000 10.000000
v -0.973512 0.500000 2.609477
v -0.922336 0.500000 3.000000
v -0.762801 0.500000 3.810080
v -0.703210 0.500000 4.000000
v -0.347723 0.500000 4.956185
v -0.325036 0.500000 5.000000
v -0.100000 0.500000 5.434617
v 0.133424 0.500000 5.885433
v 0.180639 0.500000 6.000000
v 0.430331 0.500000 6.705245
v 0.495368 0.500000 7.000000
v 0.581053 0.500000 7.564040
v 0.600000 0.500000 8.000000
v 0.600000 0.500000 9.000000
v 0.800000 0.500000 10.000000
v 0.600000 0.500000 10.000000
v 2.573512 0.500000 7.390523
v 2.522336 0.500000 7.000000
v 2.362800 0.500000 6.189919
v 2.303210 0.500000 6.000000
v 1.700000 0.500000 5.000000
v 1.947722 0.500000 5.043814
v 1.925036 0.500000 5.000000
v 1.700000 0.500000 4.565383
v 1.466576 0.500000 4.114567
v 1.419361 0.500000 4.000000
v 1.169669 0.500000 3.294755
v 1.104632 0.500000 3.000000
v 1.018947 0.500000 2.435960
v 1.000000 0.500000 2.000000
v 0.800000 0.500000 1.000000
v 1.000000 0.500000 1.000000
v 0.800000 0.500000 -0.000000
v 1.000000 0.500000 -0.000000
v 1.075646 0.500000 2.868633
v 1.300308 0.500000 3.711113
v 1.667220 0.500000 4.502075
v 2.180167 0.500000 5.607847
v 2.494246 0.500000 6.785643
v 2.600000 0.500000 8.000000
v 0.524354 0.500000 7.131367
v 0.299692 0.500000 6.288887
v -0.067220 0.500000 5.497925
v -0.894246 0.500000 3.214357
v -0.580167 0.500000 4.392153
v 1.947723 -0.500000 5.043814
v 1.700000 -0.500000 6.000000
v 1.700000 -0.500000 5.000000
v 1.925036 -0.500000 5.000000
v 2.180167 -0.500000 5.607847
v 2.362801 -0.500000 6.189919
v 1.700000 -0.500000 7.000000
v 2.494246 -0.500000 6.785643
v 2.303210 -0.500000 6.000000
v 2.573512 -0.500000 7.390523
v 1.700000 -0.500000 8.000000
v 2.522336 -0.500000 7.000000
v 0.600000 -0.500000 9.000000
v 0.800000 -0.500000 10.000000
v 0.600000 -0.500000 10.000000
v 0.600000 -0.500000 8.000000
v 0.800000 -0.500000 9.000000
v 0.581053 -0.500000 7.564040
v 0.800000 -0.500000 8.000000
v 0.800000 -0.500000 7.000000
v 0.524354 -0.500000 7.131367
v 0.299693 -0.500000 6.288887
v 0.800000 -0.500000 6.000000
v 0.430331 -0.500000 6.705245
v 0.495368 -0.500000 7.000000
v -0.100000 -0.500000 5.434617
v 0.800000 -0.500000 5.000000
v -0.067220 -0.500000 5.497925
v 0.133424 -0.500000 5.885433
v 0.180639 -0.500000 6.000000
v -0.347722 -0.500000 4.956185
v -0.100000 -0.500000 4.000000
v -0.100000 -0.500000 5.000000
v -0.325036 -0.500000 5.000000
v -0.580167 -0.500000 4.392153
v -0.762800 -0.500000 3.810080
v -0.100000 -0.500000 3.000000
v -0.703210 -0.500000 4.000000
v -0.894246 -0.500000 3.214357
v -0.973511 -0.500000 2.609477
v -0.100000 -0.500000 2.000000
v -0.922336 -0.500000 3.000000
v -1.000000 -0.500000 2.000000
v 2.600000 -0.500000 8.000000
v 1.700000 -0.500000 4.565383
v 0.800000 -0.500000 4.000000
v 1.300308 -0.500000 3.711113
v 1.419361 -0.500000 4.000000
v 0.800000 -0.500000 3.000000
v 1.075646 -0.500000 2.868633
v 1.104632 -0.500000 3.000000
v 1.000000 -0.500000 2.000000
v 0.800000 -0.500000 1.000000
v 1.000000 -0.500000 1.000000
v 0.800000 -0.500000 -0.000000
v 1.000000 -0.500000 -0.000000
v -0.100000 -0.500000 1.000000
v -1.000000 -0.500000 0.000000
v -0.100000 -0.500000 0.000000
v 0.000000 -0.500000 -0.000000
v -1.000000 -0.500000 1.000000
v 0.800000 -0.500000 2.000000
v 1.466576 -0.500000 4.114567
v 1.700000 -0.500000 9.000000
v 2.600000 -0.500000 9.000000
v 1.600000 -0.500000 10.000000
v 2.600000 -0.500000 10.000000
v 1.667220 -0.500000 4.502075
v 1.169670 -0.500000 3.294755
v 1.700000 -0.500000 10.000000
v 1.018947 -0.500000 2.435960
vt -0.200000 0.000000
vt -0.110000 -0.100000
vt -0.200000 -0.100000
vt -0.020000 0.000000
vt 0.000000 -0.100000
vt -0.020000 -0.100000
vt -0.100000 -0.100000
vt -0.100000 0.000000
vt 0.000000 0.000000
vt -0.110000 0.000000
vt -0.200000 0.000000
vt -0.100000 -0.100000
vt -0.200000 -0.100000
vt 0.000000 -0.100000
vt -0.100000 0.000000
vt 0.000000 0.000000
vt 2.707255 -0.000000
vt 2.700237 0.100000
vt 2.700237 -0.000000
vt 2.707255 0.100000
vt 2.794123 -0.000000
vt 2.794123 0.100000
vt 2.880990 0.100000
vt 2.852655 -0.000000
vt 2.880990 -0.000000
vt 2.967858 -0.000000
vt 2.967858 0.100000
vt 3.054725 0.100000
vt 2.998635 -0.000000
vt 3.054725 -0.000000
vt 3.141593 -0.000000
vt 3.141593 0.100000
vt 2.630531 -0.000000
vt 2.630531 0.100000
vt 2.620388 -0.000000
vt 2.620388 0.100000
vt 2.852655 0.100000
vt 2.998635 0.100000
vt 6.196318 0.100000
vt 6.283185 0.000000
vt 6.196318 0.000000
vt 6.109450 0.100000
vt 6.109450 0.000000
vt 6.022583 0.100000
vt 6.082679 0.000000
vt 6.022583 0.000000
vt 5.935716 0.100000
vt 5.935716 0.000000
vt 5.848848 0.100000
vt 5.873506 0.000000
vt 5.848848 0.000000
vt 5.761981 0.100000
vt 5.761981 0.000000
vt 6.283185 0.100000
vt 6.082679 0.100000
vt 5.873506 0.100000
vt -0.100000 0.000000
vt 0.000000 -0.100000
vt -0.100000 -0.100000
vt 0.000000 0.000000
vt -0.200000 0.000000
vt -0.200000 -0.100000
vt 0.000000 0.000000
vt 0.090000 -0.100000
vt 0.000000 -0.100000
vt 0.100000 0.000000
vt 0.180000 -0.100000
vt 0.100000 -0.100000
vt 0.200000 -0.100000
vt 0.180000 0.000000
vt 0.200000 0.000000
vt 0.090000 0.000000
vt 0.100000 0.000000
vt 0.200000 -0.100000
vt 0.100000 -0.100000
vt 0.200000 0.000000
vt 0.000000 0.000000
vt 0.000000 -0.100000
vt 6.196318 0.100000
vt 6.283185 0.000000
vt 6.283185 0.100000
vt 6.196318 0.000000
vt 6.109450 0.000000
vt 6.140227 0.100000
vt 6.109450 0.100000
vt 6.140227 0.000000
vt 6.022583 0.100000
vt 6.022583 0.000000
vt 5.935716 0.000000
vt 5.994248 0.100000
vt 5.935716 0.100000
vt 5.994248 0.000000
vt 5.848848 0.100000
vt 5.848848 0.000000
vt 5.761981 0.000000
vt 5.772123 0.100000
vt 5.761981 0.100000
vt 5.772123 0.000000
vt 5.841829 0.100000
vt 5.841829 0.000000
vt 2.731913 0.100000
vt 2.794123 -0.000000
vt 2.731913 -0.000000
vt 2.967858 0.100000
vt 3.054725 -0.000000
vt 2.967858 -0.000000
vt 2.880990 0.100000
vt 2.941087 -0.000000
vt 2.880990 -0.000000
vt 2.794123 0.100000
vt 2.707255 0.100000
vt 2.941087 0.100000
vt 3.054725 0.100000
vt 3.141593 -0.000000
vt 3.141593 0.100000
vt 2.707255 -0.000000
vt 2.620388 0.100000
vt 2.620388 -0.000000
vt 0.100000 -0.100000
vt 0.000000 0.000000
vt 0.100000 0.000000
vt 0.000000 -0.100000
vt 0.200000 -0.100000
vt 0.200000 0.000000
vt 0.432500 0.700000
vt 0.522500 0.600000
vt 0.522500 0.700000
vt 0.612500 -0.100000
vt 0.602500 -0.200000
vt 0.612500 -0.200000
vt 0.702500 -0.200000
vt 0.702500 -0.100000
vt 0.522500 -0.000000
vt 0.612500 -0.000000
vt 0.702500 -0.000000
vt 0.522500 0.100000
vt 0.612500 0.100000
vt 0.522500 0.200000
vt 0.612500 0.200000
vt 0.522500 0.300000
vt 0.612500 0.300000
vt 0.432500 0.400000
vt 0.522500 0.400000
vt 0.432500 0.500000
vt 0.522500 0.500000
vt 0.432500 0.600000
vt 0.342500 0.700000
vt 0.342500 0.800000
vt 0.432500 0.800000
vt 0.442500 0.800000
vt 0.699851 0.060948
vt 0.694734 0.100000
vt 0.678780 0.181008
vt 0.672821 0.200000
vt 0.637272 0.295619
vt 0.635004 0.300000
vt 0.612500 0.343462
vt 0.589158 0.388543
vt 0.584436 0.400000
vt 0.559467 0.470525
vt 0.552963 0.500000
vt 0.544395 0.556404
vt 0.542500 0.600000
vt 0.542500 0.700000
vt 0.522500 0.800000
vt 0.542500 0.800000
vt 0.345149 0.539052
vt 0.350266 0.500000
vt 0.366220 0.418992
vt 0.372179 0.400000
vt 0.432500 0.300000
vt 0.407728 0.304381
vt 0.409996 0.300000
vt 0.432500 0.256538
vt 0.455842 0.211457
vt 0.460564 0.200000
vt 0.485533 0.129475
vt 0.492037 0.100000
vt 0.500605 0.043596
vt 0.502500 0.000000
vt 0.522500 -0.100000
vt 0.502500 -0.100000
vt 0.522500 -0.200000
vt 0.502500 -0.200000
vt 0.494935 0.086863
vt 0.472469 0.171111
vt 0.435778 0.250207
vt 0.384483 0.360785
vt 0.353075 0.478564
vt 0.342500 0.600000
vt 0.550065 0.513137
vt 0.572531 0.428889
vt 0.609222 0.349793
vt 0.691925 0.121436
vt 0.660517 0.239215
vt 0.407728 0.304381
vt 0.432500 0.400000
vt 0.432500 0.300000
vt 0.409996 0.300000
vt 0.384483 0.360785
vt 0.366220 0.418992
vt 0.432500 0.500000
vt 0.353075 0.478564
vt 0.372179 0.400000
vt 0.345149 0.539052
vt 0.432500 0.600000
vt 0.350266 0.500000
vt 0.542500 0.700000
vt 0.522500 0.800000
vt 0.542500 0.800000
vt 0.542500 0.600000
vt 0.522500 0.700000
vt 0.544395 0.556404
vt 0.522500 0.600000
vt 0.522500 0.500000
vt 0.550065 0.513137
vt 0.572531 0.428889
vt 0.522500 0.400000
vt 0.559467 0.470525
vt 0.552963 0.500000
vt 0.612500 0.343462
vt 0.522500 0.300000
vt 0.609222 0.349793
vt 0.589158 0.388543
vt 0.584436 0.400000
vt 0.637272 0.295619
vt 0.612500 0.200000
vt 0.612500 0.300000
vt 0.635004 0.300000
vt 0.660517 0.239215
vt 0.678780 0.181008
vt 0.612500 0.100000
vt 0.672821 0.200000
vt 0.691925 0.121436
vt 0.699851 0.060948
vt 0.612500 -0.000000
vt 0.694734 0.100000
vt 0.702500 -0.000000
vt 0.342500 0.600000
vt 0.432500 0.256538
vt 0.522500 0.200000
vt 0.472469 0.171111
vt 0.460564 0.200000
vt 0.522500 0.100000
vt 0.494935 0.086863
vt 0.492037 0.100000
vt 0.502500 0.000000
vt 0.522500 -0.100000
vt 0.502500 -0.100000
vt 0.522500 -0.200000
vt 0.502500 -0.200000
vt 0.612500 -0.100000
vt 0.702500 -0.200000
vt 0.612500 -0.200000
vt 0.602500 -0.200000
vt 0.702500 -0.100000
vt 0.522500 -0.000000
vt 0.455842 0.211457
vt 0.432500 0.700000
vt 0.342500 0.700000
vt 0.442500 0.800000
vt 0.342500 0.800000
vt 0.435778 0.250207
vt 0.485533 0.129475
vt 0.432500 0.800000
vt 0.500605 0.043596
vn -0.0000 0.0000 -1.0000
vn -1.0000 -0.0000 0.0000
vn -0.9071 -0.0000 0.4208
vn -0.9042 0.0000 0.4271
vn -0.9402 -0.0000 0.3405
vn -0.9662 -0.0000 0.2577
vn -0.9585 -0.0000 0.2849
vn -0.9849 -0.0000 0.1729
vn -0.9962 -0.0000 0.0868
vn -0.9898 -0.0000 0.1425
vn -0.8722 -0.0000 0.4891
vn -0.8672 -0.0000 0.4979
vn -0.9800 -0.0000 0.1991
vn -0.9172 -0.0000 0.3983
vn -0.0000 0.0000 1.0000
vn 1.0000 0.0000 0.0000
vn 0.9962 0.0000 -0.0868
vn 0.9849 0.0000 -0.1729
vn 0.9898 0.0000 -0.1425
vn 0.9662 0.0000 -0.2577
vn 0.9402 0.0000 -0.3405
vn 0.9585 0.0000 -0.2849
vn 0.9071 0.0000 -0.4208
vn 0.8672 -0.0000 -0.4979
vn 0.8722 0.0000 -0.4891
vn 0.9042 0.0000 -0.4271
vn 0.9042 0.0000 -0.4272
vn 0.9172 0.0000 -0.3983
vn 0.9800 0.0000 -0.1991
vn -0.0000 1.0000 0.0000
vn 0.0000 -1.0000 -0.0000
s 1
f 1/1/1 2/2/1 3/3/1
f 4/4/1 5/5/1 6/6/1
f 4/4/1 7/7/1 8/8/1
f 5/5/1 4/4/1 9/9/1
f 7/7/1 4/4/1 6/6/1
f 2/2/1 8/8/1 7/7/1
f 8/8/1 2/2/1 10/10/1
f 2/2/1 1/1/1 10/10/1
f 11/11/2 12/12/2 13/13/2
f 14/14/2 15/15/2 16/16/2
f 12/12/2 11/11/2 15/15/2
f 15/15/2 14/14/2 12/12/2
f 17/17/3 18/18/4 19/19/4
f 20/20/3 21/21/5 22/22/5
f 23/23/6 24/24/7 25/25/6
f 23/23/6 26/26/8 27/27/8
f 28/28/9 29/29/10 30/30/9
f 28/28/9 31/31/2 32/32/2
f 31/31/2 28/28/9 30/30/9
f 18/18/4 17/17/3 20/20/3
f 33/33/11 18/18/4 34/34/11
f 18/18/4 33/33/11 19/19/4
f 34/34/11 35/35/12 33/33/11
f 35/35/12 34/34/11 36/36/12
f 21/21/5 20/20/3 17/17/3
f 24/24/7 23/23/6 37/37/7
f 26/26/8 38/38/10 27/27/8
f 21/21/5 37/37/7 22/22/5
f 26/26/8 23/23/6 25/25/6
f 29/29/10 28/28/9 38/38/10
f 38/38/10 26/26/8 29/29/10
f 37/37/7 21/21/5 24/24/7
f 39/39/9 40/40/2 41/41/9
f 42/42/8 41/41/9 43/43/8
f 44/44/6 45/45/13 46/46/6
f 47/47/5 46/46/6 48/48/5
f 49/49/3 50/50/14 51/51/3
f 52/52/12 51/51/3 53/53/12
f 51/51/3 52/52/12 49/49/3
f 40/40/2 39/39/9 54/54/2
f 41/41/9 42/42/8 39/39/9
f 45/45/13 44/44/6 55/55/13
f 55/55/13 43/43/8 45/45/13
f 43/43/8 55/55/13 42/42/8
f 48/48/5 56/56/14 47/47/5
f 50/50/14 49/49/3 56/56/14
f 56/56/14 48/48/5 50/50/14
f 46/46/6 47/47/5 44/44/6
f 57/57/2 58/58/2 59/59/2
f 58/58/2 57/57/2 60/60/2
f 59/59/2 61/61/2 57/57/2
f 61/61/2 59/59/2 62/62/2
f 63/63/15 64/64/15 65/65/15
f 66/66/15 67/67/15 68/68/15
f 69/69/15 70/70/15 71/71/15
f 70/70/15 69/69/15 67/67/15
f 67/67/15 66/66/15 70/70/15
f 68/68/15 72/72/15 66/66/15
f 72/72/15 68/68/15 64/64/15
f 64/64/15 63/63/15 72/72/15
f 73/73/16 74/74/16 75/75/16
f 74/74/16 73/73/16 76/76/16
f 75/75/16 77/77/16 73/73/16
f 77/77/16 75/75/16 78/78/16
f 79/79/17 80/80/16 81/81/16
f 80/80/16 79/79/17 82/82/17
f 83/83/18 84/84/19 85/85/18
f 79/79/17 86/86/19 82/82/17
f 86/86/19 79/79/17 84/84/19
f 83/83/18 87/87/20 88/88/20
f 89/89/21 90/90/22 91/91/21
f 90/90/22 89/89/21 92/92/22
f 92/92/22 87/87/20 90/90/22
f 89/89/21 93/93/23 94/94/23
f 95/95/24 96/96/25 97/97/24
f 96/96/25 95/95/24 98/98/25
f 99/99/26 98/98/25 100/100/27
f 98/98/25 99/99/26 96/96/25
f 99/99/26 94/94/23 93/93/23
f 87/87/20 83/83/18 85/85/18
f 87/87/20 92/92/22 88/88/20
f 93/93/23 89/89/21 91/91/21
f 94/94/23 99/99/26 100/100/27
f 84/84/19 83/83/18 86/86/19
f 101/101/28 102/102/21 103/103/28
f 104/104/18 105/105/17 106/106/18
f 107/107/20 108/108/29 109/109/20
f 110/110/21 109/109/20 102/102/21
f 103/103/28 111/111/23 101/101/28
f 109/109/20 110/110/21 107/107/20
f 106/106/18 112/112/29 104/104/18
f 112/112/29 106/106/18 108/108/29
f 108/108/29 107/107/20 112/112/29
f 105/105/17 104/104/18 113/113/17
f 114/114/16 113/113/17 115/115/16
f 111/111/23 103/103/28 116/116/23
f 117/117/24 116/116/23 118/118/24
f 116/116/23 117/117/24 111/111/23
f 102/102/21 101/101/28 110/110/21
f 113/113/17 114/114/16 105/105/17
f 119/119/16 120/120/16 121/121/16
f 120/120/16 119/119/16 122/122/16
f 123/123/16 121/121/16 124/124/16
f 121/121/16 123/123/16 119/119/16
f 125/125/30 126/126/30 127/127/30
f 128/128/30 129/129/30 130/130/30
f 128/128/30 131/131/30 132/132/30
f 133/133/30 128/128/30 134/134/30
f 134/134/30 132/132/30 135/135/30
f 136/136/30 134/134/30 137/137/30
f 138/138/30 137/137/30 139/139/30
f 140/140/30 139/139/30 141/141/30
f 142/142/30 140/140/30 143/143/30
f 144/144/30 143/143/30 145/145/30
f 146/146/30 145/145/30 126/126/30
f 147/147/30 146/146/30 125/125/30
f 148/148/30 125/125/30 149/149/30
f 125/125/30 150/150/30 149/149/30
f 137/137/30 151/151/30 152/152/30
f 139/139/30 153/153/30 154/154/30
f 141/141/30 155/155/30 156/156/30
f 156/156/30 157/157/30 141/141/30
f 143/143/30 158/158/30 159/159/30
f 145/145/30 160/160/30 161/161/30
f 126/126/30 162/162/30 163/163/30
f 127/127/30 163/163/30 164/164/30
f 165/165/30 164/164/30 166/166/30
f 144/144/30 167/167/30 168/168/30
f 142/142/30 169/169/30 170/170/30
f 171/171/30 172/172/30 173/173/30
f 173/173/30 174/174/30 171/171/30
f 138/138/30 175/175/30 176/176/30
f 136/136/30 177/177/30 178/178/30
f 133/133/30 179/179/30 180/180/30
f 180/180/30 181/181/30 133/133/30
f 182/182/30 183/183/30 181/181/30
f 183/183/30 182/182/30 184/184/30
f 181/181/30 180/180/30 182/182/30
f 185/185/30 136/136/30 178/178/30
f 179/179/30 136/136/30 185/185/30
f 179/179/30 133/133/30 136/136/30
f 186/186/30 138/138/30 176/176/30
f 177/177/30 138/138/30 186/186/30
f 177/177/30 136/136/30 138/138/30
f 140/140/30 187/187/30 175/175/30
f 140/140/30 174/174/30 187/187/30
f 175/175/30 138/138/30 140/140/30
f 174/174/30 140/140/30 171/171/30
f 188/188/30 142/142/30 170/170/30
f 142/142/30 172/172/30 171/171/30
f 172/172/30 142/142/30 188/188/30
f 144/144/30 169/169/30 142/142/30
f 189/189/30 144/144/30 168/168/30
f 169/169/30 144/144/30 189/189/30
f 146/146/30 167/167/30 144/144/30
f 167/167/30 146/146/30 190/190/30
f 164/164/30 165/165/30 127/127/30
f 163/163/30 127/127/30 126/126/30
f 191/191/30 145/145/30 161/161/30
f 162/162/30 145/145/30 191/191/30
f 162/162/30 126/126/30 145/145/30
f 143/143/30 192/192/30 160/160/30
f 192/192/30 143/143/30 159/159/30
f 160/160/30 145/145/30 143/143/30
f 140/140/30 193/193/30 158/158/30
f 140/140/30 157/157/30 193/193/30
f 158/158/30 143/143/30 140/140/30
f 157/157/30 140/140/30 141/141/30
f 129/129/30 181/181/30 183/183/30
f 181/181/30 129/129/30 128/128/30
f 131/131/30 128/128/30 130/130/30
f 128/128/30 133/133/30 181/181/30
f 132/132/30 134/134/30 128/128/30
f 134/134/30 136/136/30 133/133/30
f 137/137/30 138/138/30 136/136/30
f 139/139/30 140/140/30 138/138/30
f 140/140/30 142/142/30 171/171/30
f 143/143/30 144/144/30 142/142/30
f 145/145/30 146/146/30 144/144/30
f 146/146/30 147/147/30 190/190/30
f 126/126/30 125/125/30 146/146/30
f 125/125/30 148/148/30 147/147/30
f 150/150/30 127/127/30 165/165/30
f 127/127/30 150/150/30 125/125/30
f 151/151/30 134/134/30 135/135/30
f 134/134/30 151/151/30 137/137/30
f 153/153/30 137/137/30 194/194/30
f 137/137/30 153/153/30 139/139/30
f 194/194/30 137/137/30 152/152/30
f 155/155/30 139/139/30 195/195/30
f 139/139/30 155/155/30 141/141/30
f 195/195/30 139/139/30 154/154/30
f 196/196/31 197/197/31 198/198/31
f 196/196/31 198/198/31 199/199/31
f 197/197/31 196/196/31 200/200/31
f 201/201/31 202/202/31 197/197/31
f 202/202/31 201/201/31 203/203/31
f 201/201/31 197/197/31 204/204/31
f 205/205/31 206/206/31 202/202/31
f 205/205/31 202/202/31 207/207/31
f 208/208/31 209/209/31 210/210/31
f 211/211/31 212/212/31 208/208/31
f 213/213/31 214/214/31 211/211/31
f 214/214/31 213/213/31 215/215/31
f 215/215/31 213/213/31 216/216/31
f 217/217/31 218/218/31 219/219/31
f 219/219/31 215/215/31 220/220/31
f 215/215/31 219/219/31 218/218/31
f 221/221/31 222/222/31 223/223/31
f 223/223/31 222/222/31 224/224/31
f 224/224/31 218/218/31 225/225/31
f 218/218/31 224/224/31 222/222/31
f 226/226/31 227/227/31 228/228/31
f 226/226/31 228/228/31 229/229/31
f 227/227/31 226/226/31 230/230/31
f 231/231/31 232/232/31 227/227/31
f 231/231/31 227/227/31 233/233/31
f 232/232/31 231/231/31 234/234/31
f 235/235/31 236/236/31 232/232/31
f 235/235/31 232/232/31 237/237/31
f 236/236/31 235/235/31 238/238/31
f 232/232/31 234/234/31 237/237/31
f 227/227/31 230/230/31 233/233/31
f 221/221/31 229/229/31 228/228/31
f 222/222/31 221/221/31 228/228/31
f 218/218/31 217/217/31 225/225/31
f 215/215/31 216/216/31 220/220/31
f 212/212/31 211/211/31 214/214/31
f 209/209/31 208/208/31 212/212/31
f 206/206/31 205/205/31 239/239/31
f 202/202/31 203/203/31 207/207/31
f 197/197/31 200/200/31 204/204/31
f 240/240/31 199/199/31 198/198/31
f 222/222/31 240/240/31 198/198/31
f 241/241/31 242/242/31 243/243/31
f 244/244/31 245/245/31 246/246/31
f 247/247/31 248/248/31 249/249/31
f 249/249/31 250/250/31 251/251/31
f 252/252/31 253/253/31 254/254/31
f 248/248/31 255/255/31 250/250/31
f 236/236/31 256/256/31 252/252/31
f 257/257/31 252/252/31 248/248/31
f 244/244/31 236/236/31 257/257/31
f 241/241/31 232/232/31 244/244/31
f 258/258/31 241/241/31 243/243/31
f 222/222/31 227/227/31 241/241/31
f 197/197/31 222/222/31 198/198/31
f 202/202/31 218/218/31 197/197/31
f 206/206/31 215/215/31 202/202/31
f 259/259/31 214/214/31 206/206/31
f 260/260/31 206/206/31 239/239/31
f 212/212/31 261/261/31 209/209/31
f 262/262/31 259/259/31 260/260/31
f 263/263/31 222/222/31 258/258/31
f 240/240/31 222/222/31 263/263/31
f 241/241/31 264/264/31 242/242/31
f 259/259/31 262/262/31 265/265/31
f 261/261/31 212/212/31 259/259/31
f 261/261/31 259/259/31 265/265/31
f 206/206/31 260/260/31 259/259/31
f 214/214/31 259/259/31 212/212/31
f 215/215/31 206/206/31 214/214/31
f 218/218/31 202/202/31 215/215/31
f 222/222/31 197/197/31 218/218/31
f 227/227/31 222/222/31 228/228/31
f 232/232/31 241/241/31 227/227/31
f 236/236/31 244/244/31 232/232/31
f 252/252/31 257/257/31 236/236/31
f 256/256/31 236/236/31 238/238/31
f 255/255/31 248/248/31 252/252/31
f 255/255/31 252/252/31 254/254/31
f 253/253/31 252/252/31 256/256/31
f 250/250/31 249/249/31 248/248/31
f 248/248/31 247/247/31 257/257/31
f 266/266/31 257/257/31 247/247/31
f 257/257/31 266/266/31 244/244/31
f 244/244/31 266/266/31 245/245/31
f 264/264/31 244/244/31 246/246/31
f 244/244/31 264/264/31 241/241/31
f 241/241/31 258/258/31 222/222/31
