# Blender v2.91.0 OBJ File: ''
# www.blender.org
v 1.000000 0.500000 -0.000000
v 0.100000 -0.500000 -0.000000
v 1.000000 -0.500000 -0.000000
v -0.800000 0.500000 0.000000
v -1.000000 -0.500000 0.000000
v -0.800000 -0.500000 0.000000
v 0.000000 -0.500000 -0.000000
v -0.000000 0.500000 0.000000
v -1.000000 0.500000 0.000000
v 0.100000 0.500000 -0.000000
v 1.000000 0.500000 2.000000
v 1.000000 -0.500000 1.000000
v 1.000000 -0.500000 2.000000
v 1.000000 -0.500000 -0.000000
v 1.000000 0.500000 1.000000
v 1.000000 0.500000 -0.000000
v 0.347722 0.500000 4.956185
v 0.325036 -0.500000 5.000000
v 0.325036 0.500000 5.000000
v 0.347723 -0.500000 4.956185
v 0.580167 0.500000 4.392153
v 0.580167 -0.500000 4.392153
v 0.762801 -0.500000 3.810080
v 0.703210 0.500000 4.000000
v 0.762800 0.500000 3.810080
v 0.894246 0.500000 3.214357
v 0.894246 -0.500000 3.214357
v 0.973512 -0.500000 2.609477
v 0.922336 0.500000 3.000000
v 0.973511 0.500000 2.609477
v 1.000000 0.500000 2.000000
v 1.000000 -0.500000 2.000000
v 0.100000 0.500000 5.434617
v 0.100000 -0.500000 5.434617
v 0.067220 0.500000 5.497925
v 0.067220 -0.500000 5.497925
v 0.703210 -0.500000 4.000000
v 0.922336 -0.500000 3.000000
v -0.581053 -0.500000 7.564040
v -0.600000 0.500000 8.000000
v -0.581053 0.500000 7.564040
v -0.524354 -0.500000 7.131367
v -0.524354 0.500000 7.131367
v -0.430330 -0.500000 6.705245
v -0.495368 0.500000 7.000000
v -0.430331 0.500000 6.705245
v -0.299692 -0.500000 6.288887
v -0.299692 0.500000 6.288887
v -0.133424 -0.500000 5.885433
v -0.180639 0.500000 6.000000
v -0.133424 0.500000 5.885433
v 0.067220 -0.500000 5.497925
v 0.067220 0.500000 5.497925
v -0.600000 -0.500000 8.000000
v -0.495368 -0.500000 7.000000
v -0.180638 -0.500000 6.000000
v -0.600000 0.500000 9.000000
v -0.600000 -0.500000 8.000000
v -0.600000 -0.500000 9.000000
v -0.600000 0.500000 8.000000
v -0.600000 0.500000 10.000000
v -0.600000 -0.500000 10.000000
v -2.600000 0.500000 10.000000
v -1.700000 -0.500000 10.000000
v -2.600000 -0.500000 10.000000
v -1.600000 0.500000 10.000000
v -0.800000 -0.500000 10.000000
v -1.600000 -0.500000 10.000000
v -0.600000 -0.500000 10.000000
v -0.800000 0.500000 10.000000
v -0.600000 0.500000 10.000000
v -1.700000 0.500000 10.000000
v -2.600000 0.500000 9.000000
v -2.600000 -0.500000 10.000000
v -2.600000 -0.500000 9.000000
v -2.600000 0.500000 10.000000
v -2.600000 0.500000 8.000000
v -2.600000 -0.500000 8.000000
v -2.573511 -0.500000 7.390523
v -2.600000 0.500000 8.000000
v -2.600000 -0.500000 8.000000
v -2.573512 0.500000 7.390523
v -2.494246 0.500000 6.785643
v -2.522336 -0.500000 7.000000
v -2.494246 -0.500000 6.785643
v -2.522336 0.500000 7.000000
v -2.362800 -0.500000 6.189919
v -2.362800 0.500000 6.189919
v -2.180167 0.500000 5.607847
v -2.303210 -0.500000 6.000000
v -2.180167 -0.500000 5.607847
v -2.303210 0.500000 6.000000
v -1.947722 -0.500000 5.043814
v -1.947722 0.500000 5.043814
v -1.667220 0.500000 4.502075
v -1.700000 -0.500000 4.565383
v -1.667220 -0.500000 4.502075
v -1.700000 0.500000 4.565383
v -1.925036 -0.500000 5.000000
v -1.925036 0.500000 5.000000
v -1.419361 -0.500000 4.000000
v -1.300308 0.500000 3.711113
v -1.419361 0.500000 4.000000
v -1.075646 -0.500000 2.868633
v -1.018947 0.500000 2.435960
v -1.075646 0.500000 2.868633
v -1.169669 -0.500000 3.294755
v -1.104632 0.500000 3.000000
v -1.169669 0.500000 3.294755
v -1.300308 -0.500000 3.711113
v -1.466576 -0.500000 4.114567
v -1.104632 -0.500000 3.000000
v -1.018947 -0.500000 2.435960
v -1.000000 0.500000 2.000000
v -1.000000 -0.500000 2.000000
v -1.466576 0.500000 4.114567
v -1.667220 -0.500000 4.502075
v -1.667220 0.500000 4.502075
v -1.000000 -0.500000 1.000000
v -1.000000 0.500000 0.000000
v -1.000000 0.500000 1.000000
v -1.000000 -0.500000 0.000000
v -1.000000 -0.500000 2.000000
v -1.000000 0.500000 2.000000
v -1.700000 0.500000 9.000000
v -0.800000 0.500000 8.000000
v -0.800000 0.500000 9.000000
v 0.100000 0.500000 1.000000
v -0.000000 0.500000 0.000000
v 0.100000 0.500000 -0.000000
v 1.000000 0.500000 -0.000000
v 1.000000 0.500000 1.000000
v -0.800000 0.500000 2.000000
v 0.100000 0.500000 2.000000
v 1.000000 0.500000 2.000000
v -0.800000 0.500000 3.000000
v 0.100000 0.500000 3.000000
v -0.800000 0.500000 4.000000
v 0.100000 0.500000 4.000000
v -0.800000 0.500000 5.000000
v 0.100000 0.500000 5.000000
v -1.700000 0.500000 6.000000
v -0.800000 0.500000 6.000000
v -1.700000 0.500000 7.000000
v -0.800000 0.500000 7.000000
v -1.700000 0.500000 8.000000
v -2.600000 0.500000 9.000000
v -2.600000 0.500000 10.000000
v -1.700000 0.500000 10.000000
v -1.600000 0.500000 10.000000
v 0.973511 0.500000 2.609477
v 0.922336 0.500000 3.000000
v 0.762800 0.500000 3.810080
v 0.703210 0.500000 4.000000
v 0.347722 0.500000 4.956185
v 0.325036 0.500000 5.000000
v 0.100000 0.500000 5.434617
v -0.133424 0.500000 5.885433
v -0.180639 0.500000 6.000000
v -0.430331 0.500000 6.705245
v -0.495368 0.500000 7.000000
v -0.581053 0.500000 7.564040
v -0.600000 0.500000 8.000000
v -0.600000 0.500000 9.000000
v -0.800000 0.500000 10.000000
v -0.600000 0.500000 10.000000
v -2.573512 0.500000 7.390523
v -2.522336 0.500000 7.000000
v -2.362800 0.500000 6.189919
v -2.303210 0.500000 6.000000
v -1.700000 0.500000 5.000000
v -1.947722 0.500000 5.043814
v -1.925036 0.500000 5.000000
v -1.700000 0.500000 4.565383
v -1.466576 0.500000 4.114567
v -1.419361 0.500000 4.000000
v -1.169669 0.500000 3.294755
v -1.104632 0.500000 3.000000
v -1.018947 0.500000 2.435960
v -1.000000 0.500000 2.000000
v -0.800000 0.500000 1.000000
v -1.000000 0.500000 1.000000
v -0.800000 0.500000 0.000000
v -1.000000 0.500000 0.000000
v -1.075646 0.500000 2.868633
v -1.300308 0.500000 3.711113
v -1.667220 0.500000 4.502075
v -2.180167 0.500000 5.607847
v -2.494246 0.500000 6.785643
v -2.600000 0.500000 8.000000
v -0.524354 0.500000 7.131367
v -0.299692 0.500000 6.288887
v 0.067220 0.500000 5.497925
v 0.894246 0.500000 3.214357
v 0.580167 0.500000 4.392153
v -1.947722 -0.500000 5.043814
v -1.700000 -0.500000 6.000000
v -1.700000 -0.500000 5.000000
v -1.925036 -0.500000 5.000000
v -2.180167 -0.500000 5.607847
v -2.362800 -0.500000 6.189919
v -1.700000 -0.500000 7.000000
v -2.494246 -0.500000 6.785643
v -2.303210 -0.500000 6.000000
v -2.573511 -0.500000 7.390523
v -1.700000 -0.500000 8.000000
v -2.522336 -0.500000 7.000000
v -0.600000 -0.500000 9.000000
v -0.800000 -0.500000 10.000000
v -0.600000 -0.500000 10.000000
v -0.600000 -0.500000 8.000000
v -0.800000 -0.500000 9.000000
v -0.581053 -0.500000 7.564040
v -0.800000 -0.500000 8.000000
v -0.800000 -0.500000 7.000000
v -0.524354 -0.500000 7.131367
v -0.299692 -0.500000 6.288887
v -0.800000 -0.500000 6.000000
v -0.430330 -0.500000 6.705245
v -0.495368 -0.500000 7.000000
v 0.100000 -0.500000 5.434617
v -0.800000 -0.500000 5.000000
v 0.067220 -0.500000 5.497925
v -0.133424 -0.500000 5.885433
v -0.180638 -0.500000 6.000000
v 0.347723 -0.500000 4.956185
v 0.100000 -0.500000 4.000000
v 0.100000 -0.500000 5.000000
v 0.325036 -0.500000 5.000000
v 0.580167 -0.500000 4.392153
v 0.762801 -0.500000 3.810080
v 0.100000 -0.500000 3.000000
v 0.703210 -0.500000 4.000000
v 0.894246 -0.500000 3.214357
v 0.973512 -0.500000 2.609477
v 0.100000 -0.500000 2.000000
v 0.922336 -0.500000 3.000000
v 1.000000 -0.500000 2.000000
v -2.600000 -0.500000 8.000000
v -1.700000 -0.500000 4.565383
v -0.800000 -0.500000 4.000000
v -1.300308 -0.500000 3.711113
v -1.419361 -0.500000 4.000000
v -0.800000 -0.500000 3.000000
v -1.075646 -0.500000 2.868633
v -1.104632 -0.500000 3.000000
v -1.000000 -0.500000 2.000000
v -0.800000 -0.500000 1.000000
v -1.000000 -0.500000 1.000000
v -0.800000 -0.500000 0.000000
v -1.000000 -0.500000 0.000000
v 0.100000 -0.500000 1.000000
v 1.000000 -0.500000 -0.000000
v 0.100000 -0.500000 -0.000000
v 0.000000 -0.500000 -0.000000
v 1.000000 -0.500000 1.000000
v -0.800000 -0.500000 2.000000
v -1.466576 -0.500000 4.114567
v -1.700000 -0.500000 9.000000
v -2.600000 -0.500000 9.000000
v -1.600000 -0.500000 10.000000
v -2.600000 -0.500000 10.000000
v -1.667220 -0.500000 4.502075
v -1.169669 -0.500000 3.294755
v -1.700000 -0.500000 10.000000
v -1.018947 -0.500000 2.435960
vt -0.200000 0.000000
vt -0.200000 -0.100000
vt -0.110000 -0.100000
vt -0.020000 0.000000
vt -0.020000 -0.100000
vt 0.000000 -0.100000
vt -0.100000 0.000000
vt -0.100000 -0.100000
vt 0.000000 0.000000
vt -0.110000 0.000000
vt -0.200000 0.000000
vt -0.200000 -0.100000
vt -0.100000 -0.100000
vt 0.000000 -0.100000
vt 0.000000 0.000000
vt -0.100000 0.000000
vt 2.707255 -0.000000
vt 2.700237 -0.000000
vt 2.700237 0.100000
vt 2.707255 0.100000
vt 2.794123 0.100000
vt 2.794123 -0.000000
vt 2.880990 0.100000
vt 2.880990 -0.000000
vt 2.852655 -0.000000
vt 2.967858 0.100000
vt 2.967858 -0.000000
vt 3.054725 0.100000
vt 3.054725 -0.000000
vt 2.998635 -0.000000
vt 3.141593 0.100000
vt 3.141593 -0.000000
vt 2.630531 -0.000000
vt 2.630531 0.100000
vt 2.620388 -0.000000
vt 2.620388 0.100000
vt 2.852655 0.100000
vt 2.998635 0.100000
vt 6.196318 0.100000
vt 6.196318 0.000000
vt 6.283185 0.000000
vt 6.109450 0.100000
vt 6.109450 0.000000
vt 6.022583 0.100000
vt 6.022583 0.000000
vt 6.082679 0.000000
vt 5.935716 0.100000
vt 5.935716 0.000000
vt 5.848848 0.100000
vt 5.848848 0.000000
vt 5.873506 0.000000
vt 5.761981 0.100000
vt 5.761981 0.000000
vt 6.283185 0.100000
vt 6.082679 0.100000
vt 5.873506 0.100000
vt -0.100000 0.000000
vt -0.100000 -0.100000
vt 0.000000 -0.100000
vt 0.000000 0.000000
vt -0.200000 0.000000
vt -0.200000 -0.100000
vt 0.000000 0.000000
vt 0.000000 -0.100000
vt 0.090000 -0.100000
vt 0.100000 0.000000
vt 0.100000 -0.100000
vt 0.180000 -0.100000
vt 0.200000 -0.100000
vt 0.200000 0.000000
vt 0.180000 0.000000
vt 0.090000 0.000000
vt 0.100000 0.000000
vt 0.100000 -0.100000
vt 0.200000 -0.100000
vt 0.200000 0.000000
vt 0.000000 0.000000
vt 0.000000 -0.100000
vt 6.196318 0.100000
vt 6.283185 0.100000
vt 6.283185 0.000000
vt 6.196318 0.000000
vt 6.109450 0.000000
vt 6.109450 0.100000
vt 6.140227 0.100000
vt 6.140227 0.000000
vt 6.022583 0.000000
vt 6.022583 0.100000
vt 5.935716 0.000000
vt 5.935716 0.100000
vt 5.994248 0.100000
vt 5.994248 0.000000
vt 5.848848 0.000000
vt 5.848848 0.100000
vt 5.761981 0.000000
vt 5.761981 0.100000
vt 5.772123 0.100000
vt 5.772123 0.000000
vt 5.841829 0.100000
vt 5.841829 0.000000
vt 2.731913 0.100000
vt 2.731913 -0.000000
vt 2.794123 -0.000000
vt 2.967858 0.100000
vt 2.967858 -0.000000
vt 3.054725 -0.000000
vt 2.880990 0.100000
vt 2.880990 -0.000000
vt 2.941087 -0.000000
vt 2.794123 0.100000
vt 2.707255 0.100000
vt 2.941087 0.100000
vt 3.054725 0.100000
vt 3.141593 -0.000000
vt 3.141593 0.100000
vt 2.707255 -0.000000
vt 2.620388 0.100000
vt 2.620388 -0.000000
vt 0.100000 -0.100000
vt 0.100000 0.000000
vt 0.000000 0.000000
vt 0.000000 -0.100000
vt 0.200000 -0.100000
vt 0.200000 0.000000
vt 0.432500 0.700000
vt 0.522500 0.700000
vt 0.522500 0.600000
vt 0.612500 -0.100000
vt 0.612500 -0.200000
vt 0.602500 -0.200000
vt 0.702500 -0.100000
vt 0.702500 -0.200000
vt 0.522500 -0.000000
vt 0.612500 -0.000000
vt 0.702500 -0.000000
vt 0.522500 0.100000
vt 0.612500 0.100000
vt 0.522500 0.200000
vt 0.612500 0.200000
vt 0.522500 0.300000
vt 0.612500 0.300000
vt 0.432500 0.400000
vt 0.522500 0.400000
vt 0.432500 0.500000
vt 0.522500 0.500000
vt 0.432500 0.600000
vt 0.342500 0.700000
vt 0.342500 0.800000
vt 0.432500 0.800000
vt 0.442500 0.800000
vt 0.694734 0.100000
vt 0.699851 0.060948
vt 0.672821 0.200000
vt 0.678780 0.181008
vt 0.635004 0.300000
vt 0.637272 0.295619
vt 0.612500 0.343462
vt 0.584436 0.400000
vt 0.589158 0.388543
vt 0.552963 0.500000
vt 0.559467 0.470525
vt 0.542500 0.600000
vt 0.544395 0.556404
vt 0.542500 0.700000
vt 0.522500 0.800000
vt 0.542500 0.800000
vt 0.350266 0.500000
vt 0.345149 0.539052
vt 0.372179 0.400000
vt 0.366220 0.418992
vt 0.432500 0.300000
vt 0.409996 0.300000
vt 0.407728 0.304381
vt 0.432500 0.256538
vt 0.460564 0.200000
vt 0.455842 0.211457
vt 0.492037 0.100000
vt 0.485533 0.129475
vt 0.502500 0.000000
vt 0.500605 0.043596
vt 0.522500 -0.100000
vt 0.502500 -0.100000
vt 0.522500 -0.200000
vt 0.502500 -0.200000
vt 0.494935 0.086863
vt 0.472469 0.171111
vt 0.435778 0.250207
vt 0.384483 0.360785
vt 0.353075 0.478564
vt 0.342500 0.600000
vt 0.550065 0.513137
vt 0.572531 0.428889
vt 0.609222 0.349793
vt 0.691925 0.121436
vt 0.660517 0.239215
vt 0.407728 0.304381
vt 0.432500 0.300000
vt 0.432500 0.400000
vt 0.409996 0.300000
vt 0.384483 0.360785
vt 0.366220 0.418992
vt 0.432500 0.500000
vt 0.353075 0.478564
vt 0.372179 0.400000
vt 0.345149 0.539052
vt 0.432500 0.600000
vt 0.350266 0.500000
vt 0.542500 0.700000
vt 0.542500 0.800000
vt 0.522500 0.800000
vt 0.542500 0.600000
vt 0.522500 0.700000
vt 0.544395 0.556404
vt 0.522500 0.600000
vt 0.522500 0.500000
vt 0.550065 0.513137
vt 0.572531 0.428889
vt 0.559467 0.470525
vt 0.522500 0.400000
vt 0.552963 0.500000
vt 0.612500 0.343462
vt 0.609222 0.349793
vt 0.522500 0.300000
vt 0.589158 0.388543
vt 0.584436 0.400000
vt 0.637272 0.295619
vt 0.612500 0.300000
vt 0.612500 0.200000
vt 0.635004 0.300000
vt 0.660517 0.239215
vt 0.678780 0.181008
vt 0.612500 0.100000
vt 0.672821 0.200000
vt 0.691925 0.121436
vt 0.699851 0.060948
vt 0.612500 -0.000000
vt 0.694734 0.100000
vt 0.702500 -0.000000
vt 0.342500 0.600000
vt 0.432500 0.256538
vt 0.522500 0.200000
vt 0.460564 0.200000
vt 0.472469 0.171111
vt 0.522500 0.100000
vt 0.492037 0.100000
vt 0.494935 0.086863
vt 0.502500 0.000000
vt 0.502500 -0.100000
vt 0.522500 -0.100000
vt 0.502500 -0.200000
vt 0.522500 -0.200000
vt 0.612500 -0.100000
vt 0.612500 -0.200000
vt 0.702500 -0.200000
vt 0.602500 -0.200000
vt 0.702500 -0.100000
vt 0.522500 -0.000000
vt 0.455842 0.211457
vt 0.432500 0.700000
vt 0.342500 0.700000
vt 0.442500 0.800000
vt 0.342500 0.800000
vt 0.435778 0.250207
vt 0.485533 0.129475
vt 0.432500 0.800000
vt 0.500605 0.043596
vn -0.0000 0.0000 -1.0000
vn 1.0000 0.0000 0.0000
vn 0.9071 0.0000 0.4208
vn 0.8707 0.0000 0.4918
vn 0.9402 0.0000 0.3405
vn 0.9662 0.0000 0.2577
vn 0.9495 0.0000 0.3137
vn 0.9849 0.0000 0.1729
vn 0.9962 0.0000 0.0868
vn 0.9931 0.0000 0.1174
vn 0.9981 -0.0434 0.0434
vn 0.9981 0.0434 0.0434
vn 0.9028 0.0000 0.4300
vn 0.8872 0.0434 0.4594
vn 0.8872 -0.0434 0.4594
vn 0.9728 0.0000 0.2317
vn 0.9316 0.0000 0.3636
vn 0.0000 0.0000 1.0000
vn -1.0000 -0.0000 0.0000
vn -0.9962 -0.0000 -0.0868
vn -0.9981 -0.0434 -0.0434
vn -0.9981 0.0434 -0.0434
vn -0.9849 -0.0000 -0.1729
vn -0.9931 0.0000 -0.1174
vn -0.9662 -0.0000 -0.2577
vn -0.9402 -0.0000 -0.3405
vn -0.9495 0.0000 -0.3137
vn -0.9071 -0.0000 -0.4208
vn -0.8872 0.0434 -0.4594
vn -0.8872 -0.0434 -0.4594
vn -0.9028 -0.0000 -0.4300
vn -0.8707 -0.0000 -0.4918
vn -0.9316 -0.0000 -0.3636
vn -0.9728 -0.0000 -0.2317
vn -0.0000 1.0000 0.0000
vn 0.0000 -1.0000 -0.0000
s 1
f 1/1/1 3/2/1 2/3/1
f 4/4/1 6/5/1 5/6/1
f 4/4/1 8/7/1 7/8/1
f 5/6/1 9/9/1 4/4/1
f 7/8/1 6/5/1 4/4/1
f 2/3/1 7/8/1 8/7/1
f 8/7/1 10/10/1 2/3/1
f 2/3/1 10/10/1 1/1/1
f 11/11/2 13/12/2 12/13/2
f 14/14/2 16/15/2 15/16/2
f 12/13/2 15/16/2 11/11/2
f 15/16/2 12/13/2 14/14/2
f 17/17/3 19/18/4 18/19/4
f 20/20/3 22/21/5 21/22/5
f 23/23/6 25/24/6 24/25/7
f 23/23/6 27/26/8 26/27/8
f 28/28/9 30/29/9 29/30/10
f 28/28/9 32/31/11 31/32/12
f 31/32/12 30/29/9 28/28/9
f 18/19/4 20/20/3 17/17/3
f 33/33/13 34/34/13 18/19/4
f 18/19/4 19/18/4 33/33/13
f 34/34/13 33/33/13 35/35/14
f 35/35/14 36/36/15 34/34/13
f 21/22/5 17/17/3 20/20/3
f 24/25/7 37/37/7 23/23/6
f 26/27/8 27/26/8 38/38/10
f 21/22/5 22/21/5 37/37/7
f 26/27/8 25/24/6 23/23/6
f 29/30/10 38/38/10 28/28/9
f 38/38/10 29/30/10 26/27/8
f 37/37/7 24/25/7 21/22/5
f 39/39/9 41/40/9 40/41/11
f 42/42/8 43/43/8 41/40/9
f 44/44/6 46/45/6 45/46/16
f 47/47/5 48/48/5 46/45/6
f 49/49/3 51/50/3 50/51/17
f 52/52/14 53/53/15 51/50/3
f 51/50/3 49/49/3 52/52/14
f 40/41/11 54/54/12 39/39/9
f 41/40/9 39/39/9 42/42/8
f 45/46/16 55/55/16 44/44/6
f 55/55/16 45/46/16 43/43/8
f 43/43/8 42/42/8 55/55/16
f 48/48/5 47/47/5 56/56/17
f 50/51/17 56/56/17 49/49/3
f 56/56/17 50/51/17 48/48/5
f 46/45/6 44/44/6 47/47/5
f 57/57/2 59/58/2 58/59/2
f 58/59/2 60/60/2 57/57/2
f 59/58/2 57/57/2 61/61/2
f 61/61/2 62/62/2 59/58/2
f 63/63/18 65/64/18 64/65/18
f 66/66/18 68/67/18 67/68/18
f 69/69/18 71/70/18 70/71/18
f 70/71/18 67/68/18 69/69/18
f 67/68/18 70/71/18 66/66/18
f 68/67/18 66/66/18 72/72/18
f 72/72/18 64/65/18 68/67/18
f 64/65/18 72/72/18 63/63/18
f 73/73/19 75/74/19 74/75/19
f 74/75/19 76/76/19 73/73/19
f 75/74/19 73/73/19 77/77/19
f 77/77/19 78/78/19 75/74/19
f 79/79/20 81/80/21 80/81/22
f 80/81/22 82/82/20 79/79/20
f 83/83/23 85/84/23 84/85/24
f 79/79/20 82/82/20 86/86/24
f 86/86/24 84/85/24 79/79/20
f 83/83/23 88/87/25 87/88/25
f 89/89/26 91/90/26 90/91/27
f 90/91/27 92/92/27 89/89/26
f 92/92/27 90/91/27 87/88/25
f 89/89/26 94/93/28 93/94/28
f 95/95/29 97/96/30 96/97/31
f 96/97/31 98/98/31 95/95/29
f 99/99/32 100/100/32 98/98/31
f 98/98/31 96/97/31 99/99/32
f 99/99/32 93/94/28 94/93/28
f 87/88/25 85/84/23 83/83/23
f 87/88/25 88/87/25 92/92/27
f 93/94/28 91/90/26 89/89/26
f 94/93/28 100/100/32 99/99/32
f 84/85/24 86/86/24 83/83/23
f 101/101/33 103/102/33 102/103/26
f 104/104/23 106/105/23 105/106/20
f 107/107/25 109/108/25 108/109/34
f 110/110/26 102/103/26 109/108/25
f 103/102/33 101/101/33 111/111/28
f 109/108/25 107/107/25 110/110/26
f 106/105/23 104/104/23 112/112/34
f 112/112/34 108/109/34 106/105/23
f 108/109/34 112/112/34 107/107/25
f 105/106/20 113/113/20 104/104/23
f 114/114/21 115/115/22 113/113/20
f 111/111/28 116/116/28 103/102/33
f 117/117/29 118/118/30 116/116/28
f 116/116/28 111/111/28 117/117/29
f 102/103/26 110/110/26 101/101/33
f 113/113/20 105/106/20 114/114/21
f 119/119/19 121/120/19 120/121/19
f 120/121/19 122/122/19 119/119/19
f 123/123/19 124/124/19 121/120/19
f 121/120/19 119/119/19 123/123/19
f 125/125/35 127/126/35 126/127/35
f 128/128/35 130/129/35 129/130/35
f 128/128/35 132/131/35 131/132/35
f 133/133/35 134/134/35 128/128/35
f 134/134/35 135/135/35 132/131/35
f 136/136/35 137/137/35 134/134/35
f 138/138/35 139/139/35 137/137/35
f 140/140/35 141/141/35 139/139/35
f 142/142/35 143/143/35 140/140/35
f 144/144/35 145/145/35 143/143/35
f 146/146/35 126/127/35 145/145/35
f 147/147/35 125/125/35 146/146/35
f 148/148/35 149/149/35 125/125/35
f 125/125/35 149/149/35 150/150/35
f 137/137/35 152/151/35 151/152/35
f 139/139/35 154/153/35 153/154/35
f 141/141/35 156/155/35 155/156/35
f 156/155/35 141/141/35 157/157/35
f 143/143/35 159/158/35 158/159/35
f 145/145/35 161/160/35 160/161/35
f 126/127/35 163/162/35 162/163/35
f 127/126/35 164/164/35 163/162/35
f 165/165/35 166/166/35 164/164/35
f 144/144/35 168/167/35 167/168/35
f 142/142/35 170/169/35 169/170/35
f 171/171/35 173/172/35 172/173/35
f 173/172/35 171/171/35 174/174/35
f 138/138/35 176/175/35 175/176/35
f 136/136/35 178/177/35 177/178/35
f 133/133/35 180/179/35 179/180/35
f 180/179/35 133/133/35 181/181/35
f 182/182/35 181/181/35 183/183/35
f 183/183/35 184/184/35 182/182/35
f 181/181/35 182/182/35 180/179/35
f 185/185/35 178/177/35 136/136/35
f 179/180/35 185/185/35 136/136/35
f 179/180/35 136/136/35 133/133/35
f 186/186/35 176/175/35 138/138/35
f 177/178/35 186/186/35 138/138/35
f 177/178/35 138/138/35 136/136/35
f 140/140/35 175/176/35 187/187/35
f 140/140/35 187/187/35 174/174/35
f 175/176/35 140/140/35 138/138/35
f 174/174/35 171/171/35 140/140/35
f 188/188/35 170/169/35 142/142/35
f 142/142/35 171/171/35 172/173/35
f 172/173/35 188/188/35 142/142/35
f 144/144/35 142/142/35 169/170/35
f 189/189/35 168/167/35 144/144/35
f 169/170/35 189/189/35 144/144/35
f 146/146/35 144/144/35 167/168/35
f 167/168/35 190/190/35 146/146/35
f 164/164/35 127/126/35 165/165/35
f 163/162/35 126/127/35 127/126/35
f 191/191/35 161/160/35 145/145/35
f 162/163/35 191/191/35 145/145/35
f 162/163/35 145/145/35 126/127/35
f 143/143/35 160/161/35 192/192/35
f 192/192/35 159/158/35 143/143/35
f 160/161/35 143/143/35 145/145/35
f 140/140/35 158/159/35 193/193/35
f 140/140/35 193/193/35 157/157/35
f 158/159/35 140/140/35 143/143/35
f 157/157/35 141/141/35 140/140/35
f 129/130/35 183/183/35 181/181/35
f 181/181/35 128/128/35 129/130/35
f 131/132/35 130/129/35 128/128/35
f 128/128/35 181/181/35 133/133/35
f 132/131/35 128/128/35 134/134/35
f 134/134/35 133/133/35 136/136/35
f 137/137/35 136/136/35 138/138/35
f 139/139/35 138/138/35 140/140/35
f 140/140/35 171/171/35 142/142/35
f 143/143/35 142/142/35 144/144/35
f 145/145/35 144/144/35 146/146/35
f 146/146/35 190/190/35 147/147/35
f 126/127/35 146/146/35 125/125/35
f 125/125/35 147/147/35 148/148/35
f 150/150/35 165/165/35 127/126/35
f 127/126/35 125/125/35 150/150/35
f 151/152/35 135/135/35 134/134/35
f 134/134/35 137/137/35 151/152/35
f 153/154/35 194/194/35 137/137/35
f 137/137/35 139/139/35 153/154/35
f 194/194/35 152/151/35 137/137/35
f 155/156/35 195/195/35 139/139/35
f 139/139/35 141/141/35 155/156/35
f 195/195/35 154/153/35 139/139/35
f 196/196/36 198/197/36 197/198/36
f 196/196/36 199/199/36 198/197/36
f 197/198/36 200/200/36 196/196/36
f 201/201/36 197/198/36 202/202/36
f 202/202/36 203/203/36 201/201/36
f 201/201/36 204/204/36 197/198/36
f 205/205/36 202/202/36 206/206/36
f 205/205/36 207/207/36 202/202/36
f 208/208/36 210/209/36 209/210/36
f 211/211/36 208/208/36 212/212/36
f 213/213/36 211/211/36 214/214/36
f 214/214/36 215/215/36 213/213/36
f 215/215/36 216/216/36 213/213/36
f 217/217/36 219/218/36 218/219/36
f 219/218/36 220/220/36 215/215/36
f 215/215/36 218/219/36 219/218/36
f 221/221/36 223/222/36 222/223/36
f 223/222/36 224/224/36 222/223/36
f 224/224/36 225/225/36 218/219/36
f 218/219/36 222/223/36 224/224/36
f 226/226/36 228/227/36 227/228/36
f 226/226/36 229/229/36 228/227/36
f 227/228/36 230/230/36 226/226/36
f 231/231/36 227/228/36 232/232/36
f 231/231/36 233/233/36 227/228/36
f 232/232/36 234/234/36 231/231/36
f 235/235/36 232/232/36 236/236/36
f 235/235/36 237/237/36 232/232/36
f 236/236/36 238/238/36 235/235/36
f 232/232/36 237/237/36 234/234/36
f 227/228/36 233/233/36 230/230/36
f 221/221/36 228/227/36 229/229/36
f 222/223/36 228/227/36 221/221/36
f 218/219/36 225/225/36 217/217/36
f 215/215/36 220/220/36 216/216/36
f 212/212/36 214/214/36 211/211/36
f 209/210/36 212/212/36 208/208/36
f 206/206/36 239/239/36 205/205/36
f 202/202/36 207/207/36 203/203/36
f 197/198/36 204/204/36 200/200/36
f 240/240/36 198/197/36 199/199/36
f 222/223/36 198/197/36 240/240/36
f 241/241/36 243/242/36 242/243/36
f 244/244/36 246/245/36 245/246/36
f 247/247/36 249/248/36 248/249/36
f 249/248/36 251/250/36 250/251/36
f 252/252/36 254/253/36 253/254/36
f 248/249/36 250/251/36 255/255/36
f 236/236/36 252/252/36 256/256/36
f 257/257/36 248/249/36 252/252/36
f 244/244/36 257/257/36 236/236/36
f 241/241/36 244/244/36 232/232/36
f 258/258/36 243/242/36 241/241/36
f 222/223/36 241/241/36 227/228/36
f 197/198/36 198/197/36 222/223/36
f 202/202/36 197/198/36 218/219/36
f 206/206/36 202/202/36 215/215/36
f 259/259/36 206/206/36 214/214/36
f 260/260/36 239/239/36 206/206/36
f 212/212/36 209/210/36 261/261/36
f 262/262/36 260/260/36 259/259/36
f 263/263/36 258/258/36 222/223/36
f 240/240/36 263/263/36 222/223/36
f 241/241/36 242/243/36 264/264/36
f 259/259/36 265/265/36 262/262/36
f 261/261/36 259/259/36 212/212/36
f 261/261/36 265/265/36 259/259/36
f 206/206/36 259/259/36 260/260/36
f 214/214/36 212/212/36 259/259/36
f 215/215/36 214/214/36 206/206/36
f 218/219/36 215/215/36 202/202/36
f 222/223/36 218/219/36 197/198/36
f 227/228/36 228/227/36 222/223/36
f 232/232/36 227/228/36 241/241/36
f 236/236/36 232/232/36 244/244/36
f 252/252/36 236/236/36 257/257/36
f 256/256/36 238/238/36 236/236/36
f 255/255/36 252/252/36 248/249/36
f 255/255/36 254/253/36 252/252/36
f 253/254/36 256/256/36 252/252/36
f 250/251/36 248/249/36 249/248/36
f 248/249/36 257/257/36 247/247/36
f 266/266/36 247/247/36 257/257/36
f 257/257/36 244/244/36 266/266/36
f 244/244/36 245/246/36 266/266/36
f 264/264/36 246/245/36 244/244/36
f 244/244/36 241/241/36 264/264/36
f 241/241/36 222/223/36 258/258/36
